<svg xmlns="http://www.w3.org/2000/svg" viewBox="0 0 128 128" role="img" aria-label="Vinnie icon">
  <rect width="128" height="128" rx="24" fill="#1b1b1b"/>
  <path
    d="M64 12c-24.853 0-45 20.147-45 45 0 24.09 18.928 43.759 42.717 44.95l9.145 11.198a6 6 0 0 0 10.555-2.781l2.308-11.465C100.46 91.785 109 75.822 109 58c0-25.405-19.595-46-45-46Z"
    fill="#f5f7f8"
  />
  <path
    d="M65 25c-18.778 0-34 15.222-34 34 0 18.778 15.222 34 34 34 18.778 0 34-15.222 34-34 0-18.778-15.222-34-34-34Z"
    fill="#1b1b1b"
  />
  <path
    d="M48 49c4.2 0 7.193 2.689 8.493 6.402.569 1.626-.724 3.298-2.447 3.298H41.954c-1.723 0-3.016-1.672-2.447-3.298C40.807 51.689 43.8 49 48 49Zm32 0c4.2 0 7.193 2.689 8.493 6.402.569 1.626-.724 3.298-2.447 3.298H73.954c-1.723 0-3.016-1.672-2.447-3.298C72.807 51.689 75.8 49 80 49Z"
    fill="#f5f7f8"
  />
  <path
    d="M41 78c8.862 8.917 24.358 10.266 34.894 3.068l6.163 7.35c1.94 2.313-.105 5.741-3.068 5.132-19.568-4.019-33.607-20.873-33.607-40.851 0-1.657 2.067-2.385 3.096-1.1L59.5 64.5c1.023 1.28.937 3.113-.206 4.287L41 78Z"
    fill="#f5f7f8"
  />
</svg>
